<?xml version="1.0" standalone="no"?>
<!DOCTYPE svg PUBLIC "-//W3C//DTD SVG 20010904//EN"
 "http://www.w3.org/TR/2001/REC-SVG-20010904/DTD/svg10.dtd">
<svg version="1.0" xmlns="http://www.w3.org/2000/svg"
 width="156.000000pt" height="156.000000pt" viewBox="0 0 156.000000 156.000000"
 preserveAspectRatio="xMidYMid meet">
<metadata>
Created by potrace 1.11, written by Peter Selinger 2001-2013
</metadata>
<g transform="translate(0.000000,156.000000) scale(0.100000,-0.100000)"
fill="#000000" stroke="none">
<path d="M0 780 l0 -780 385 0 385 0 0 413 c0 396 1 413 20 445 32 53 87 72
208 72 l102 0 0 315 0 315 -550 0 -550 0 0 -780z m394 136 c42 -17 53 -34 34
-52 -12 -12 -18 -12 -46 2 -42 21 -84 11 -117 -28 -34 -40 -33 -82 4 -119 31
-31 83 -39 122 -19 25 14 49 61 49 97 0 43 36 92 83 113 54 25 81 25 132 0 63
-31 85 -78 85 -184 0 -85 0 -86 -25 -86 -16 0 -25 6 -25 15 0 14 -3 14 -30 0
-46 -24 -119 -19 -162 10 l-37 25 -37 -25 c-73 -50 -183 -25 -218 49 -37 78
-8 162 67 196 50 23 77 25 121 6z"/>
<path d="M554 871 c-32 -14 -64 -60 -64 -93 0 -43 48 -88 95 -88 47 0 71 13
91 51 38 74 -45 162 -122 130z"/>
<path d="M1150 1245 l0 -315 65 0 c63 0 65 -1 65 -25 0 -24 -2 -25 -65 -25
l-65 0 0 -66 c0 -59 3 -68 29 -95 32 -31 84 -39 123 -18 26 14 48 68 48 119 0
36 2 40 25 40 24 0 25 -3 25 -57 0 -101 -59 -163 -155 -163 -94 0 -138 48
-145 160 -5 73 -6 75 -32 78 -33 4 -33 1 -12 -40 31 -59 4 -140 -59 -178 -40
-25 -123 -27 -155 -4 l-22 15 0 -335 0 -336 370 0 370 0 0 780 0 780 -205 0
-205 0 0 -315z m244 -301 c19 -19 20 -26 4 -42 -18 -18 -46 -14 -58 7 -7 15
-6 23 6 35 19 20 29 20 48 0z"/>
<path d="M874 864 c-89 -44 -57 -174 43 -174 48 0 78 21 93 64 14 44 0 80 -42
106 -39 24 -53 24 -94 4z"/>
</g>
</svg>
